<svg width="304" height="34" viewBox="0 0 304 34" fill="none" xmlns="http://www.w3.org/2000/svg">
<path d="M0.40625 33L6.78125 5.01562H7.57812L8.32812 8.57812L2.89062 33H0.40625ZM6.35938 26.9531L6.875 24.5625H14.0469L8.70312 0.234375H11.1875L18.3594 33H15.875L14.6094 26.9531H6.35938ZM21.5 33V15.0938C21.5 13.125 22.1719 11.4688 23.5156 10.125C24.7969 8.9375 26.4375 8.34375 28.4375 8.34375V10.7344C26.5312 10.7344 25.1875 11.5625 24.4062 13.2188C24.0938 13.9062 23.9375 14.6406 23.9375 15.4219V33H21.5ZM30.5 10.7344V8.34375C32.8438 8.34375 34.625 9.14062 35.8438 10.7344C36 10.9531 36.1562 11.1719 36.3125 11.3906C37.3438 9.82812 38.625 8.875 40.1562 8.53125C40.75 8.40625 41.3906 8.34375 42.0781 8.34375V10.7344C40.2031 10.7344 38.8594 11.5469 38.0469 13.1719C37.7031 13.8906 37.5312 14.6406 37.5312 15.4219V33H35.0938V15.4219C35.0938 13.5469 34.3594 12.1875 32.8906 11.3438C32.1719 10.9375 31.375 10.7344 30.5 10.7344ZM44.1406 10.7344V8.34375C47.0469 8.34375 49.125 9.60938 50.375 12.1406C50.875 13.1406 51.125 14.125 51.125 15.0938V33H48.6875V15.4219C48.6875 13.4844 47.9219 12.1094 46.3906 11.2969C45.7031 10.9219 44.9531 10.7344 44.1406 10.7344ZM54.6875 27.2812C54.6875 28.9375 55.5 30.3281 57.125 31.4531C58.5 32.4531 60.1562 32.9531 62.0938 32.9531V30.6562C59.6562 30.6562 58.0781 29.8594 57.3594 28.2656C57.1406 27.7656 57.0312 27.2344 57.0312 26.6719V24.9844C57.0312 24.1719 57.2031 23.5938 57.5469 23.25C58.0781 22.7188 60.0312 22.0781 63.4062 21.3281C66.4062 20.6406 68.3594 20.0625 69.2656 19.5938V25.9219C69.2344 29.0469 67.5625 30.625 64.25 30.6562V32.9531C66.3438 32.9531 68.0312 32.4688 69.3125 31.5C69.4375 31.4062 69.5469 31.3125 69.6406 31.2188C70.6719 32.2812 71.7656 32.8594 72.9219 32.9531V30.6094C72.1094 30.5781 71.7031 30.0469 71.7031 29.0156V15.75C71.7031 13.5625 70.9219 11.7344 69.3594 10.2656C67.9844 8.98438 66.2812 8.34375 64.25 8.34375V10.5938C65.7812 10.5938 67.0625 11.2188 68.0938 12.4688C68.8438 13.4062 69.2188 14.4844 69.2188 15.7031V16.5C69.25 17.25 67.3125 18.0938 63.4062 19.0312C59.6875 19.9375 57.5625 20.5312 57.0312 20.8125C55.5 21.6875 54.7188 23.1094 54.6875 25.0781V27.2812ZM55.0156 14.5312L57.2188 15.375C57.2188 13.5938 58.0156 12.25 59.6094 11.3438C60.3906 10.875 61.2188 10.6406 62.0938 10.6406V8.34375C60 8.34375 58.2031 9.09375 56.7031 10.5938C55.5781 11.7812 55.0156 13.0938 55.0156 14.5312ZM76.4844 33V15.0938C76.4844 13.5938 77.1562 12.1406 78.5 10.7344C80.0938 9.14062 82.0469 8.34375 84.3594 8.34375V10.7812C82.6406 10.7812 81.1875 11.4531 80 12.7969C79.2812 13.6406 78.9219 14.5 78.9219 15.375V33H76.4844ZM86.375 10.7812V8.34375C89.1875 8.34375 91.4062 9.5 93.0312 11.8125C93.8438 12.9688 94.25 14.0625 94.25 15.0938V33H91.7656V15.375C91.7656 14.375 91.25 13.375 90.2188 12.375C89.125 11.3125 87.8438 10.7812 86.375 10.7812ZM98.0469 5.25C98.0469 4.5625 98.3906 4.07812 99.0781 3.79688C99.2656 3.73438 99.4531 3.70312 99.6406 3.70312C100.359 3.70312 100.844 4.04688 101.094 4.73438C101.156 4.92188 101.188 5.09375 101.188 5.25C101.188 5.96875 100.844 6.45312 100.156 6.70312C99.9688 6.76562 99.7969 6.79688 99.6406 6.79688C98.9219 6.79688 98.4219 6.46875 98.1406 5.8125C98.0781 5.625 98.0469 5.4375 98.0469 5.25ZM98.4219 33V8.67188H100.859V33H98.4219ZM104.094 11.3438V8.95312H107.094V0.09375H109.531V8.95312H112.531V11.3438H109.531V25.4531C109.531 28.0469 110.406 29.6562 112.156 30.2812C112.875 30.5 113.703 30.6094 114.641 30.6094H114.828L115.391 33H114.406C110.625 32.9688 108.328 31.5 107.516 28.5938C107.234 27.5938 107.094 26.4062 107.094 25.0312V11.3438H104.094ZM117.219 27.2812C117.219 28.9375 118.031 30.3281 119.656 31.4531C121.031 32.4531 122.688 32.9531 124.625 32.9531V30.6562C122.188 30.6562 120.609 29.8594 119.891 28.2656C119.672 27.7656 119.562 27.2344 119.562 26.6719V24.9844C119.562 24.1719 119.734 23.5938 120.078 23.25C120.609 22.7188 122.562 22.0781 125.938 21.3281C128.938 20.6406 130.891 20.0625 131.797 19.5938V25.9219C131.766 29.0469 130.094 30.625 126.781 30.6562V32.9531C128.875 32.9531 130.562 32.4688 131.844 31.5C131.969 31.4062 132.078 31.3125 132.172 31.2188C133.203 32.2812 134.297 32.8594 135.453 32.9531V30.6094C134.641 30.5781 134.234 30.0469 134.234 29.0156V15.75C134.234 13.5625 133.453 11.7344 131.891 10.2656C130.516 8.98438 128.812 8.34375 126.781 8.34375V10.5938C128.312 10.5938 129.594 11.2188 130.625 12.4688C131.375 13.4062 131.75 14.4844 131.75 15.7031V16.5C131.781 17.25 129.844 18.0938 125.938 19.0312C122.219 19.9375 120.094 20.5312 119.562 20.8125C118.031 21.6875 117.25 23.1094 117.219 25.0781V27.2812ZM117.547 14.5312L119.75 15.375C119.75 13.5938 120.547 12.25 122.141 11.3438C122.922 10.875 123.75 10.6406 124.625 10.6406V8.34375C122.531 8.34375 120.734 9.09375 119.234 10.5938C118.109 11.7812 117.547 13.0938 117.547 14.5312ZM150.406 33V7.92188H150.828L152.891 12.9844V33H150.406ZM150.406 1.64062V0.1875H152.562L164.516 29.1562L173.984 7.78125H174.453V12.9375L165.594 33H163.438L150.406 1.64062ZM176.609 33V0.1875H179.094V33H176.609ZM182.844 26.4844V8.57812H185.281V26.2031C185.281 27.4219 185.938 28.5312 187.25 29.5312C188.281 30.375 189.438 30.7969 190.719 30.7969V33.2344C187.781 33.2344 185.547 32.0938 184.016 29.8125C183.234 28.6562 182.844 27.5469 182.844 26.4844ZM192.734 33.2344V30.7969C194.672 30.7969 196.188 30.0312 197.281 28.5C197.844 27.7188 198.125 26.9531 198.125 26.2031V8.57812H200.609V26.4844C200.609 27.9219 199.953 29.3281 198.641 30.7031C197.047 32.3594 195.078 33.2031 192.734 33.2344ZM203.328 26.5312L205.672 26.1094C205.672 27.7344 206.531 29.0625 208.25 30.0938C209.188 30.625 210.109 30.9062 211.016 30.9375V33.2344C208.297 33.2344 206.172 32.2188 204.641 30.1875C203.766 29 203.328 27.7812 203.328 26.5312ZM203.516 15.6094C203.516 12.7656 204.781 10.6719 207.312 9.32812C208.5 8.70312 209.703 8.39062 210.922 8.39062V10.7344C209.453 10.7344 208.188 11.3438 207.125 12.5625C206.312 13.4688 205.906 14.4844 205.906 15.6094C205.906 16.7031 206.672 17.5469 208.203 18.1406C208.797 18.3906 211.156 19.0156 215.281 20.0156C215.5 20.0781 215.703 20.125 215.891 20.1562C219.172 21 220.922 22.6875 221.141 25.2188C221.141 25.375 221.141 25.5312 221.141 25.6875C221.141 28.4688 220 30.5625 217.719 31.9688C216.312 32.8125 214.734 33.2344 212.984 33.2344V30.9375C214.609 30.9375 216.031 30.3594 217.25 29.2031C218.25 28.2344 218.75 27.0781 218.75 25.7344C218.75 24.3281 217.453 23.2188 214.859 22.4062C214.703 22.3438 212.719 21.8594 208.906 20.9531C208.625 20.8906 208.375 20.8281 208.156 20.7656C205.406 19.9531 203.875 18.5156 203.562 16.4531C203.531 16.1719 203.516 15.8906 203.516 15.6094ZM212.938 10.7812V8.39062C215.562 8.39062 217.656 9.375 219.219 11.3438C220.219 12.5625 220.719 13.8438 220.719 15.1875L218.375 15.5625C218.375 13.7188 217.359 12.3281 215.328 11.3906C214.453 10.9844 213.656 10.7812 212.938 10.7812ZM223.953 26.2969C223.953 27.9844 224.594 29.5 225.875 30.8438C227.312 32.2812 229.188 33 231.5 33V30.6562C229.656 30.6562 228.203 29.8906 227.141 28.3594C226.641 27.6406 226.391 26.9531 226.391 26.2969V15.4219C226.391 14.1719 227 13.0469 228.219 12.0469C229.219 11.2344 230.328 10.8281 231.547 10.8281V8.48438C228.672 8.48438 226.5 9.60938 225.031 11.8594C224.312 13.0156 223.953 14.1562 223.953 15.2812V26.2969ZM233.609 10.875C235.203 10.875 236.453 11.5312 237.359 12.8438C237.859 13.5625 238.156 14.3906 238.25 15.3281V16.1719L240.594 15.3281C240.594 13.1094 239.688 11.3125 237.875 9.9375C236.594 8.96875 235.172 8.48438 233.609 8.48438V10.875ZM233.562 33.0469C235.781 33.0469 237.688 32.2188 239.281 30.5625C240.531 29.25 241.141 27.7812 241.109 26.1562L238.812 25.2656C238.812 25.3281 238.797 25.4688 238.766 25.6875C238.766 25.875 238.766 26 238.766 26.0625C238.547 27.8438 237.625 29.1875 236 30.0938C235.219 30.5 234.406 30.7031 233.562 30.7031V33.0469ZM244.25 27.2812C244.25 28.9375 245.062 30.3281 246.688 31.4531C248.062 32.4531 249.719 32.9531 251.656 32.9531V30.6562C249.219 30.6562 247.641 29.8594 246.922 28.2656C246.703 27.7656 246.594 27.2344 246.594 26.6719V24.9844C246.594 24.1719 246.766 23.5938 247.109 23.25C247.641 22.7188 249.594 22.0781 252.969 21.3281C255.969 20.6406 257.922 20.0625 258.828 19.5938V25.9219C258.797 29.0469 257.125 30.625 253.812 30.6562V32.9531C255.906 32.9531 257.594 32.4688 258.875 31.5C259 31.4062 259.109 31.3125 259.203 31.2188C260.234 32.2812 261.328 32.8594 262.484 32.9531V30.6094C261.672 30.5781 261.266 30.0469 261.266 29.0156V15.75C261.266 13.5625 260.484 11.7344 258.922 10.2656C257.547 8.98438 255.844 8.34375 253.812 8.34375V10.5938C255.344 10.5938 256.625 11.2188 257.656 12.4688C258.406 13.4062 258.781 14.4844 258.781 15.7031V16.5C258.812 17.25 256.875 18.0938 252.969 19.0312C249.25 19.9375 247.125 20.5312 246.594 20.8125C245.062 21.6875 244.281 23.1094 244.25 25.0781V27.2812ZM244.578 14.5312L246.781 15.375C246.781 13.5938 247.578 12.25 249.172 11.3438C249.953 10.875 250.781 10.6406 251.656 10.6406V8.34375C249.562 8.34375 247.766 9.09375 246.266 10.5938C245.141 11.7812 244.578 13.0938 244.578 14.5312ZM266.234 33V8.48438H268.672V12.3281C269.297 11.0156 270.344 9.98438 271.812 9.23438C272.781 8.73438 273.781 8.48438 274.812 8.48438H275.094L274.484 10.8281C272.922 10.8281 271.516 11.7656 270.266 13.6406C269.234 15.2031 268.719 16.8438 268.719 18.5625V33H266.234ZM278 5.25C278 4.5625 278.344 4.07812 279.031 3.79688C279.219 3.73438 279.406 3.70312 279.594 3.70312C280.312 3.70312 280.797 4.04688 281.047 4.73438C281.109 4.92188 281.141 5.09375 281.141 5.25C281.141 5.96875 280.797 6.45312 280.109 6.70312C279.922 6.76562 279.75 6.79688 279.594 6.79688C278.875 6.79688 278.375 6.46875 278.094 5.8125C278.031 5.625 278 5.4375 278 5.25ZM278.375 33V8.67188H280.812V33H278.375ZM284.938 27.2812C284.938 28.9375 285.75 30.3281 287.375 31.4531C288.75 32.4531 290.406 32.9531 292.344 32.9531V30.6562C289.906 30.6562 288.328 29.8594 287.609 28.2656C287.391 27.7656 287.281 27.2344 287.281 26.6719V24.9844C287.281 24.1719 287.453 23.5938 287.797 23.25C288.328 22.7188 290.281 22.0781 293.656 21.3281C296.656 20.6406 298.609 20.0625 299.516 19.5938V25.9219C299.484 29.0469 297.812 30.625 294.5 30.6562V32.9531C296.594 32.9531 298.281 32.4688 299.562 31.5C299.688 31.4062 299.797 31.3125 299.891 31.2188C300.922 32.2812 302.016 32.8594 303.172 32.9531V30.6094C302.359 30.5781 301.953 30.0469 301.953 29.0156V15.75C301.953 13.5625 301.172 11.7344 299.609 10.2656C298.234 8.98438 296.531 8.34375 294.5 8.34375V10.5938C296.031 10.5938 297.312 11.2188 298.344 12.4688C299.094 13.4062 299.469 14.4844 299.469 15.7031V16.5C299.5 17.25 297.562 18.0938 293.656 19.0312C289.938 19.9375 287.812 20.5312 287.281 20.8125C285.75 21.6875 284.969 23.1094 284.938 25.0781V27.2812ZM285.266 14.5312L287.469 15.375C287.469 13.5938 288.266 12.25 289.859 11.3438C290.641 10.875 291.469 10.6406 292.344 10.6406V8.34375C290.25 8.34375 288.453 9.09375 286.953 10.5938C285.828 11.7812 285.266 13.0938 285.266 14.5312Z" fill="#EF4823"/>
</svg>
