<svg width="186" height="22" viewBox="0 0 186 22" fill="none" xmlns="http://www.w3.org/2000/svg">
<path d="M0.984375 17V5.89062H1.19531L3.60938 11.6797V17H0.984375ZM0.984375 2.28125V0.59375H3.07031L8.03906 12.6641L11.2734 5.35156H11.5078V11.3047L8.97656 17H7.10156L0.984375 2.28125ZM12.7031 17V0.59375H15.3281V17H12.7031ZM17.2031 13.5547V4.01562H19.7344V13.2734C19.7344 13.7734 19.9844 14.1562 20.4844 14.4219C20.75 14.5625 21.0469 14.6328 21.375 14.6328V17.1172C19.8594 17.1172 18.6797 16.5234 17.8359 15.3359C17.4141 14.7266 17.2031 14.1328 17.2031 13.5547ZM22.4062 17.1172V14.6328C23.1875 14.6328 23.7031 14.3281 23.9531 13.7188C24.0156 13.5625 24.0469 13.4141 24.0469 13.2734V4.01562H26.5781V13.5547C26.5781 14.2891 26.25 15.0156 25.5938 15.7344C24.7344 16.6406 23.6719 17.1016 22.4062 17.1172ZM28.4297 17.1172V0.335938H30.7734V4.8125C31.3047 4.48438 31.8906 4.32031 32.5312 4.32031V6.64062C31.8906 6.64062 31.375 6.92188 30.9844 7.48438C30.8594 7.67188 30.7969 7.84375 30.7969 8V17.1172H28.4297ZM33.6562 6.64062V4.32031C35.1406 4.32031 36.2578 4.85156 37.0078 5.91406C37.3984 6.49219 37.5938 7.10938 37.5938 7.76562V17.1172H35.2266V8C35.2266 7.53125 35.0156 7.16406 34.5938 6.89844C34.3125 6.72656 34 6.64062 33.6562 6.64062ZM39.2578 13.4609V7.53125C39.2578 6.76562 39.6016 6.02344 40.2891 5.30469C41.1016 4.44531 42.125 4.01562 43.3594 4.01562V6.42969C42.5469 6.42969 42.0234 6.76562 41.7891 7.4375C41.7422 7.57812 41.7188 7.71875 41.7188 7.85938V13.1328C41.7188 13.7266 41.9922 14.1562 42.5391 14.4219C42.7891 14.5469 43.0703 14.6094 43.3828 14.6094V17.0234C41.8672 17.0234 40.6953 16.4141 39.8672 15.1953C39.4609 14.5859 39.2578 14.0078 39.2578 13.4609ZM44.4141 17.0234V14.6094C45.1641 14.6094 45.6562 14.2891 45.8906 13.6484C45.9531 13.4766 45.9844 13.3203 45.9844 13.1797V7.85938C45.9844 7.20312 45.6797 6.76562 45.0703 6.54688C44.8672 6.46875 44.6406 6.42969 44.3906 6.42969V4.01562C45.8594 4.01562 46.9922 4.60938 47.7891 5.79688C48.1953 6.40625 48.3984 6.98438 48.3984 7.53125V13.4609C48.3984 14.2266 48.0703 14.9766 47.4141 15.7109C46.6172 16.5703 45.6172 17.0078 44.4141 17.0234ZM50.1797 17V7.53125C50.1797 6.71875 50.5156 5.94531 51.1875 5.21094C51.9688 4.38281 52.9609 3.96875 54.1641 3.96875V6.45312C53.3828 6.45312 52.9141 6.79688 52.7578 7.48438C52.7266 7.60938 52.7109 7.73438 52.7109 7.85938V17H50.1797ZM55.2422 6.45312V3.96875C56.3672 3.98438 57.2891 4.34375 58.0078 5.04688C58.7422 4.32812 59.6641 3.96875 60.7734 3.96875V6.45312C59.9609 6.45312 59.4766 6.79688 59.3203 7.48438C59.2891 7.60938 59.2734 7.73438 59.2734 7.85938V17H56.7422V7.85938C56.7422 7.15625 56.4219 6.71094 55.7812 6.52344C55.6094 6.47656 55.4297 6.45312 55.2422 6.45312ZM61.8281 6.45312V3.96875C63.3125 3.96875 64.4531 4.57812 65.25 5.79688C65.6406 6.40625 65.8359 6.98438 65.8359 7.53125V17H63.3047V7.85938C63.3047 7.04688 62.9141 6.58594 62.1328 6.47656C62.0391 6.46094 61.9375 6.45312 61.8281 6.45312ZM67.6172 13.4609V7.53125C67.6172 6.76562 67.9609 6.02344 68.6484 5.30469C69.4609 4.44531 70.4844 4.01562 71.7188 4.01562V6.42969C70.9062 6.42969 70.3828 6.76562 70.1484 7.4375C70.1016 7.57812 70.0781 7.71875 70.0781 7.85938V13.1328C70.0781 13.7266 70.3516 14.1562 70.8984 14.4219C71.1484 14.5469 71.4297 14.6094 71.7422 14.6094V17.0234C70.2266 17.0234 69.0547 16.4141 68.2266 15.1953C67.8203 14.5859 67.6172 14.0078 67.6172 13.4609ZM72.7734 17.0234V14.6094C73.5234 14.6094 74.0156 14.2891 74.25 13.6484C74.3125 13.4766 74.3438 13.3203 74.3438 13.1797V7.85938C74.3438 7.20312 74.0391 6.76562 73.4297 6.54688C73.2266 6.46875 73 6.42969 72.75 6.42969V4.01562C74.2188 4.01562 75.3516 4.60938 76.1484 5.79688C76.5547 6.40625 76.7578 6.98438 76.7578 7.53125V13.4609C76.7578 14.2266 76.4297 14.9766 75.7734 15.7109C74.9766 16.5703 73.9766 17.0078 72.7734 17.0234ZM78.6328 17V4.01562H81.1641V5.63281C81.6016 4.94531 82.2578 4.45312 83.1328 4.15625C83.5391 4.01562 83.9375 3.94531 84.3281 3.94531H84.9375L84.3516 6.40625C83.4297 6.42188 82.625 6.86719 81.9375 7.74219C81.4219 8.41406 81.1641 9.10938 81.1641 9.82812V17H78.6328ZM86.2031 16.9766V0.59375H94.7344V3.17188H88.8281V7.53125H92.5312V10.1562H88.8281V16.9766H86.2031ZM96.1172 13.9766C96.1172 14.8516 96.5391 15.5938 97.3828 16.2031C98.1172 16.7344 98.9922 17 100.008 17V14.6797C98.8516 14.6641 98.2656 14.2578 98.25 13.4609V12.9688C98.2656 12.6562 98.3594 12.4375 98.5312 12.3125C98.6562 12.2188 99.3906 11.9922 100.734 11.6328C101.672 11.3828 102.328 11.1562 102.703 10.9531V13.2734C102.703 14.0234 102.352 14.4766 101.648 14.6328C101.508 14.6641 101.359 14.6797 101.203 14.6797V17C102.234 16.9844 103.062 16.7188 103.688 16.2031C104.234 16.7344 104.922 17 105.75 17V14.6562C105.344 14.625 105.133 14.375 105.117 13.9062V7.60156C105.117 6.66406 104.742 5.82812 103.992 5.09375C103.242 4.35938 102.305 3.99219 101.18 3.99219V6.28906C101.883 6.28906 102.352 6.57812 102.586 7.15625C102.664 7.34375 102.703 7.53906 102.703 7.74219V8.23438C102.703 8.64062 101.844 9.10938 100.125 9.64062C98.5 10.1406 97.5781 10.4531 97.3594 10.5781C96.5469 11.0625 96.1328 11.8125 96.1172 12.8281V13.9766ZM96.3047 7.25L98.4609 8.07031C98.4609 7.17969 98.8047 6.61719 99.4922 6.38281C99.6641 6.32031 99.8359 6.28906 100.008 6.28906V3.99219C98.9297 3.99219 98 4.38281 97.2188 5.16406C96.6094 5.78906 96.3047 6.48438 96.3047 7.25ZM107.344 17V7.53125C107.344 6.71875 107.68 5.94531 108.352 5.21094C109.133 4.38281 110.125 3.96875 111.328 3.96875V6.45312C110.547 6.45312 110.078 6.79688 109.922 7.48438C109.891 7.60938 109.875 7.73438 109.875 7.85938V17H107.344ZM112.406 6.45312V3.96875C113.531 3.98438 114.453 4.34375 115.172 5.04688C115.906 4.32812 116.828 3.96875 117.938 3.96875V6.45312C117.125 6.45312 116.641 6.79688 116.484 7.48438C116.453 7.60938 116.438 7.73438 116.438 7.85938V17H113.906V7.85938C113.906 7.15625 113.586 6.71094 112.945 6.52344C112.773 6.47656 112.594 6.45312 112.406 6.45312ZM118.992 6.45312V3.96875C120.477 3.96875 121.617 4.57812 122.414 5.79688C122.805 6.40625 123 6.98438 123 7.53125V17H120.469V7.85938C120.469 7.04688 120.078 6.58594 119.297 6.47656C119.203 6.46094 119.102 6.45312 118.992 6.45312ZM125.016 2.21094C125.016 1.63281 125.273 1.21875 125.789 0.96875C125.992 0.875 126.195 0.828125 126.398 0.828125C126.992 0.828125 127.414 1.08594 127.664 1.60156C127.758 1.80469 127.805 2.00781 127.805 2.21094C127.805 2.77344 127.539 3.17969 127.008 3.42969C126.805 3.52344 126.602 3.57031 126.398 3.57031C125.836 3.57031 125.422 3.32031 125.156 2.82031C125.062 2.63281 125.016 2.42969 125.016 2.21094ZM125.18 17V4.50781H127.688V17H125.18ZM129.891 17V0.335938H132.562V17H129.891ZM133.688 4.01562H136.359L139.711 14.1641L137.25 21.5703H134.672L136.992 14.1172L133.688 4.01562ZM139.008 8.39844L140.625 4.01562H143.273L140.367 12.0781H140.109L139.008 8.39844ZM144.117 15.5938C144.117 14.9688 144.391 14.5156 144.938 14.2344C145.156 14.125 145.383 14.0703 145.617 14.0703C146.242 14.0703 146.695 14.3516 146.977 14.9141C147.086 15.1328 147.141 15.3594 147.141 15.5938C147.141 16.2188 146.859 16.6719 146.297 16.9531C146.078 17.0625 145.852 17.1172 145.617 17.1172C145.023 17.1172 144.586 16.8516 144.305 16.3203C144.18 16.0859 144.117 15.8438 144.117 15.5938ZM148.805 13.4609C148.805 14.2734 149.125 15.0312 149.766 15.7344C150.547 16.5781 151.578 17 152.859 17V14.6094C152.047 14.6094 151.539 14.3359 151.336 13.7891C151.289 13.6797 151.266 13.5703 151.266 13.4609V7.57812C151.266 7.15625 151.492 6.82812 151.945 6.59375C152.211 6.45312 152.516 6.38281 152.859 6.38281V4.01562C151.328 4.01562 150.172 4.625 149.391 5.84375C149.016 6.42188 148.82 6.98438 148.805 7.53125V13.4609ZM153.914 6.40625C154.664 6.40625 155.117 6.75781 155.273 7.46094C155.305 7.58594 155.32 7.71094 155.32 7.83594V8.49219L157.617 7.625C157.617 6.46875 157.148 5.52344 156.211 4.78906C155.523 4.27344 154.758 4.01562 153.914 4.01562V6.40625ZM153.914 17.0234C155.023 17.0547 156 16.6406 156.844 15.7812C157.547 15.0625 157.898 14.2656 157.898 13.3906L155.602 12.5234V13.1562C155.523 14.125 154.961 14.6172 153.914 14.6328V17.0234ZM159.328 13.4609V7.53125C159.328 6.76562 159.672 6.02344 160.359 5.30469C161.172 4.44531 162.195 4.01562 163.43 4.01562V6.42969C162.617 6.42969 162.094 6.76562 161.859 7.4375C161.812 7.57812 161.789 7.71875 161.789 7.85938V13.1328C161.789 13.7266 162.062 14.1562 162.609 14.4219C162.859 14.5469 163.141 14.6094 163.453 14.6094V17.0234C161.938 17.0234 160.766 16.4141 159.938 15.1953C159.531 14.5859 159.328 14.0078 159.328 13.4609ZM164.484 17.0234V14.6094C165.234 14.6094 165.727 14.2891 165.961 13.6484C166.023 13.4766 166.055 13.3203 166.055 13.1797V7.85938C166.055 7.20312 165.75 6.76562 165.141 6.54688C164.938 6.46875 164.711 6.42969 164.461 6.42969V4.01562C165.93 4.01562 167.062 4.60938 167.859 5.79688C168.266 6.40625 168.469 6.98438 168.469 7.53125V13.4609C168.469 14.2266 168.141 14.9766 167.484 15.7109C166.688 16.5703 165.688 17.0078 164.484 17.0234ZM170.25 17V7.53125C170.25 6.71875 170.586 5.94531 171.258 5.21094C172.039 4.38281 173.031 3.96875 174.234 3.96875V6.45312C173.453 6.45312 172.984 6.79688 172.828 7.48438C172.797 7.60938 172.781 7.73438 172.781 7.85938V17H170.25ZM175.312 6.45312V3.96875C176.438 3.98438 177.359 4.34375 178.078 5.04688C178.812 4.32812 179.734 3.96875 180.844 3.96875V6.45312C180.031 6.45312 179.547 6.79688 179.391 7.48438C179.359 7.60938 179.344 7.73438 179.344 7.85938V17H176.812V7.85938C176.812 7.15625 176.492 6.71094 175.852 6.52344C175.68 6.47656 175.5 6.45312 175.312 6.45312ZM181.898 6.45312V3.96875C183.383 3.96875 184.523 4.57812 185.32 5.79688C185.711 6.40625 185.906 6.98438 185.906 7.53125V17H183.375V7.85938C183.375 7.04688 182.984 6.58594 182.203 6.47656C182.109 6.46094 182.008 6.45312 181.898 6.45312Z" fill="white"/>
</svg>
