<svg width="201" height="18" viewBox="0 0 201 18" fill="none" xmlns="http://www.w3.org/2000/svg">
<path d="M0.726562 17L3.82031 3.24219H4.17188L5.25 8.21094L3.30469 17H0.726562ZM5.0625 14.6562L5.60156 12.1016H7.35938L4.82812 0.59375H7.40625L11.1797 17H8.57812L8.0625 14.6562H5.0625ZM12.5859 17V7.53125C12.5859 6.71875 12.9219 5.94531 13.5938 5.21094C14.375 4.38281 15.3672 3.96875 16.5703 3.96875V6.45312C15.7891 6.45312 15.3203 6.79688 15.1641 7.48438C15.1328 7.60938 15.1172 7.73438 15.1172 7.85938V17H12.5859ZM17.6484 6.45312V3.96875C18.7734 3.98438 19.6953 4.34375 20.4141 5.04688C21.1484 4.32812 22.0703 3.96875 23.1797 3.96875V6.45312C22.3672 6.45312 21.8828 6.79688 21.7266 7.48438C21.6953 7.60938 21.6797 7.73438 21.6797 7.85938V17H19.1484V7.85938C19.1484 7.15625 18.8281 6.71094 18.1875 6.52344C18.0156 6.47656 17.8359 6.45312 17.6484 6.45312ZM24.2344 6.45312V3.96875C25.7188 3.96875 26.8594 4.57812 27.6562 5.79688C28.0469 6.40625 28.2422 6.98438 28.2422 7.53125V17H25.7109V7.85938C25.7109 7.04688 25.3203 6.58594 24.5391 6.47656C24.4453 6.46094 24.3438 6.45312 24.2344 6.45312ZM29.8125 13.9766C29.8125 14.8516 30.2344 15.5938 31.0781 16.2031C31.8125 16.7344 32.6875 17 33.7031 17V14.6797C32.5469 14.6641 31.9609 14.2578 31.9453 13.4609V12.9688C31.9609 12.6562 32.0547 12.4375 32.2266 12.3125C32.3516 12.2188 33.0859 11.9922 34.4297 11.6328C35.3672 11.3828 36.0234 11.1562 36.3984 10.9531V13.2734C36.3984 14.0234 36.0469 14.4766 35.3438 14.6328C35.2031 14.6641 35.0547 14.6797 34.8984 14.6797V17C35.9297 16.9844 36.7578 16.7188 37.3828 16.2031C37.9297 16.7344 38.6172 17 39.4453 17V14.6562C39.0391 14.625 38.8281 14.375 38.8125 13.9062V7.60156C38.8125 6.66406 38.4375 5.82812 37.6875 5.09375C36.9375 4.35938 36 3.99219 34.875 3.99219V6.28906C35.5781 6.28906 36.0469 6.57812 36.2812 7.15625C36.3594 7.34375 36.3984 7.53906 36.3984 7.74219V8.23438C36.3984 8.64062 35.5391 9.10938 33.8203 9.64062C32.1953 10.1406 31.2734 10.4531 31.0547 10.5781C30.2422 11.0625 29.8281 11.8125 29.8125 12.8281V13.9766ZM30 7.25L32.1562 8.07031C32.1562 7.17969 32.5 6.61719 33.1875 6.38281C33.3594 6.32031 33.5312 6.28906 33.7031 6.28906V3.99219C32.625 3.99219 31.6953 4.38281 30.9141 5.16406C30.3047 5.78906 30 6.48438 30 7.25ZM41.0391 17V7.53125C41.0391 6.78125 41.3828 6.03906 42.0703 5.30469C42.9141 4.42969 43.9609 3.98438 45.2109 3.96875V6.45312C44.4922 6.45312 43.9922 6.73438 43.7109 7.29688C43.6172 7.48438 43.5703 7.66406 43.5703 7.83594V17H41.0391ZM46.2422 6.45312V3.96875C47.7266 3.96875 48.8906 4.57031 49.7344 5.77344C50.1875 6.39844 50.4141 6.98438 50.4141 7.53125V17H47.8828V7.83594C47.8828 7.36719 47.6562 6.99219 47.2031 6.71094C46.9219 6.53906 46.6016 6.45312 46.2422 6.45312ZM52.4297 2.21094C52.4297 1.63281 52.6875 1.21875 53.2031 0.96875C53.4062 0.875 53.6094 0.828125 53.8125 0.828125C54.4062 0.828125 54.8281 1.08594 55.0781 1.60156C55.1719 1.80469 55.2188 2.00781 55.2188 2.21094C55.2188 2.77344 54.9531 3.17969 54.4219 3.42969C54.2188 3.52344 54.0156 3.57031 53.8125 3.57031C53.25 3.57031 52.8359 3.32031 52.5703 2.82031C52.4766 2.63281 52.4297 2.42969 52.4297 2.21094ZM52.5938 17V4.50781H55.1016V17H52.5938ZM56.6953 6.5V4.08594H58.2891V0.335938H60.7734V4.08594H62.3203V6.52344H60.7734L60.7969 13.0156C60.8281 13.9531 61.2969 14.4297 62.2031 14.4453H62.6953L63.2578 17H62.1562C60.1719 17 58.9609 16.2422 58.5234 14.7266C58.3672 14.1797 58.2891 13.5312 58.2891 12.7812V6.5H56.6953ZM64.1016 13.9766C64.1016 14.8516 64.5234 15.5938 65.3672 16.2031C66.1016 16.7344 66.9766 17 67.9922 17V14.6797C66.8359 14.6641 66.25 14.2578 66.2344 13.4609V12.9688C66.25 12.6562 66.3438 12.4375 66.5156 12.3125C66.6406 12.2188 67.375 11.9922 68.7188 11.6328C69.6562 11.3828 70.3125 11.1562 70.6875 10.9531V13.2734C70.6875 14.0234 70.3359 14.4766 69.6328 14.6328C69.4922 14.6641 69.3438 14.6797 69.1875 14.6797V17C70.2188 16.9844 71.0469 16.7188 71.6719 16.2031C72.2188 16.7344 72.9062 17 73.7344 17V14.6562C73.3281 14.625 73.1172 14.375 73.1016 13.9062V7.60156C73.1016 6.66406 72.7266 5.82812 71.9766 5.09375C71.2266 4.35938 70.2891 3.99219 69.1641 3.99219V6.28906C69.8672 6.28906 70.3359 6.57812 70.5703 7.15625C70.6484 7.34375 70.6875 7.53906 70.6875 7.74219V8.23438C70.6875 8.64062 69.8281 9.10938 68.1094 9.64062C66.4844 10.1406 65.5625 10.4531 65.3438 10.5781C64.5312 11.0625 64.1172 11.8125 64.1016 12.8281V13.9766ZM64.2891 7.25L66.4453 8.07031C66.4453 7.17969 66.7891 6.61719 67.4766 6.38281C67.6484 6.32031 67.8203 6.28906 67.9922 6.28906V3.99219C66.9141 3.99219 65.9844 4.38281 65.2031 5.16406C64.5938 5.78906 64.2891 6.48438 64.2891 7.25ZM75.4219 17V5.89062H75.6328L78.0469 11.6797V17H75.4219ZM75.4219 2.28125V0.59375H77.5078L82.4766 12.6641L85.7109 5.35156H85.9453V11.3047L83.4141 17H81.5391L75.4219 2.28125ZM87.1406 17V0.59375H89.7656V17H87.1406ZM91.6406 13.5547V4.01562H94.1719V13.2734C94.1719 13.7734 94.4219 14.1562 94.9219 14.4219C95.1875 14.5625 95.4844 14.6328 95.8125 14.6328V17.1172C94.2969 17.1172 93.1172 16.5234 92.2734 15.3359C91.8516 14.7266 91.6406 14.1328 91.6406 13.5547ZM96.8438 17.1172V14.6328C97.625 14.6328 98.1406 14.3281 98.3906 13.7188C98.4531 13.5625 98.4844 13.4141 98.4844 13.2734V4.01562H101.016V13.5547C101.016 14.2891 100.688 15.0156 100.031 15.7344C99.1719 16.6406 98.1094 17.1016 96.8438 17.1172ZM102.375 13.5781L104.695 13.1562C104.695 13.7656 105.016 14.2266 105.656 14.5391C105.938 14.6797 106.211 14.75 106.477 14.75V17.1172C104.82 17.1172 103.625 16.5312 102.891 15.3594C102.547 14.7969 102.375 14.2031 102.375 13.5781ZM102.492 7.625C102.492 6.1875 103.156 5.11719 104.484 4.41406C105.125 4.08594 105.766 3.92188 106.406 3.92188V6.24219C105.656 6.24219 105.156 6.53906 104.906 7.13281C104.844 7.30469 104.812 7.46875 104.812 7.625C104.812 8.09375 105.219 8.50781 106.031 8.86719C106.719 9.14844 107.766 9.45312 109.172 9.78125C110.25 10 111.016 10.5547 111.469 11.4453C111.703 11.9297 111.82 12.4609 111.82 13.0391C111.82 14.5859 111.195 15.7266 109.945 16.4609C109.227 16.8984 108.406 17.1172 107.484 17.1172V14.7734C108.109 14.7734 108.625 14.5625 109.031 14.1406C109.281 13.8438 109.406 13.5156 109.406 13.1562C109.406 12.6094 108.797 12.1484 107.578 11.7734C107.328 11.6953 106.938 11.5859 106.406 11.4453C105.609 11.2578 105.047 11.1016 104.719 10.9766C103.562 10.4609 102.859 9.70312 102.609 8.70312C102.531 8.375 102.492 8.01562 102.492 7.625ZM107.461 6.24219V3.92188C108.836 3.92188 109.945 4.42969 110.789 5.44531C111.32 6.10156 111.586 6.78906 111.586 7.50781L109.266 7.90625C109.266 7.10938 108.836 6.58594 107.977 6.33594C107.789 6.27344 107.617 6.24219 107.461 6.24219ZM113.18 13.4609C113.18 14.2734 113.5 15.0312 114.141 15.7344C114.922 16.5781 115.953 17 117.234 17V14.6094C116.422 14.6094 115.914 14.3359 115.711 13.7891C115.664 13.6797 115.641 13.5703 115.641 13.4609V7.57812C115.641 7.15625 115.867 6.82812 116.32 6.59375C116.586 6.45312 116.891 6.38281 117.234 6.38281V4.01562C115.703 4.01562 114.547 4.625 113.766 5.84375C113.391 6.42188 113.195 6.98438 113.18 7.53125V13.4609ZM118.289 6.40625C119.039 6.40625 119.492 6.75781 119.648 7.46094C119.68 7.58594 119.695 7.71094 119.695 7.83594V8.49219L121.992 7.625C121.992 6.46875 121.523 5.52344 120.586 4.78906C119.898 4.27344 119.133 4.01562 118.289 4.01562V6.40625ZM118.289 17.0234C119.398 17.0547 120.375 16.6406 121.219 15.7812C121.922 15.0625 122.273 14.2656 122.273 13.3906L119.977 12.5234V13.1562C119.898 14.125 119.336 14.6172 118.289 14.6328V17.0234ZM123.492 13.9766C123.492 14.8516 123.914 15.5938 124.758 16.2031C125.492 16.7344 126.367 17 127.383 17V14.6797C126.227 14.6641 125.641 14.2578 125.625 13.4609V12.9688C125.641 12.6562 125.734 12.4375 125.906 12.3125C126.031 12.2188 126.766 11.9922 128.109 11.6328C129.047 11.3828 129.703 11.1562 130.078 10.9531V13.2734C130.078 14.0234 129.727 14.4766 129.023 14.6328C128.883 14.6641 128.734 14.6797 128.578 14.6797V17C129.609 16.9844 130.438 16.7188 131.062 16.2031C131.609 16.7344 132.297 17 133.125 17V14.6562C132.719 14.625 132.508 14.375 132.492 13.9062V7.60156C132.492 6.66406 132.117 5.82812 131.367 5.09375C130.617 4.35938 129.68 3.99219 128.555 3.99219V6.28906C129.258 6.28906 129.727 6.57812 129.961 7.15625C130.039 7.34375 130.078 7.53906 130.078 7.74219V8.23438C130.078 8.64062 129.219 9.10938 127.5 9.64062C125.875 10.1406 124.953 10.4531 124.734 10.5781C123.922 11.0625 123.508 11.8125 123.492 12.8281V13.9766ZM123.68 7.25L125.836 8.07031C125.836 7.17969 126.18 6.61719 126.867 6.38281C127.039 6.32031 127.211 6.28906 127.383 6.28906V3.99219C126.305 3.99219 125.375 4.38281 124.594 5.16406C123.984 5.78906 123.68 6.48438 123.68 7.25ZM134.812 17V4.01562H137.344V5.63281C137.781 4.94531 138.438 4.45312 139.312 4.15625C139.719 4.01562 140.117 3.94531 140.508 3.94531H141.117L140.531 6.40625C139.609 6.42188 138.805 6.86719 138.117 7.74219C137.602 8.41406 137.344 9.10938 137.344 9.82812V17H134.812ZM142.547 2.21094C142.547 1.63281 142.805 1.21875 143.32 0.96875C143.523 0.875 143.727 0.828125 143.93 0.828125C144.523 0.828125 144.945 1.08594 145.195 1.60156C145.289 1.80469 145.336 2.00781 145.336 2.21094C145.336 2.77344 145.07 3.17969 144.539 3.42969C144.336 3.52344 144.133 3.57031 143.93 3.57031C143.367 3.57031 142.953 3.32031 142.688 2.82031C142.594 2.63281 142.547 2.42969 142.547 2.21094ZM142.711 17V4.50781H145.219V17H142.711ZM147.117 13.9766C147.117 14.8516 147.539 15.5938 148.383 16.2031C149.117 16.7344 149.992 17 151.008 17V14.6797C149.852 14.6641 149.266 14.2578 149.25 13.4609V12.9688C149.266 12.6562 149.359 12.4375 149.531 12.3125C149.656 12.2188 150.391 11.9922 151.734 11.6328C152.672 11.3828 153.328 11.1562 153.703 10.9531V13.2734C153.703 14.0234 153.352 14.4766 152.648 14.6328C152.508 14.6641 152.359 14.6797 152.203 14.6797V17C153.234 16.9844 154.062 16.7188 154.688 16.2031C155.234 16.7344 155.922 17 156.75 17V14.6562C156.344 14.625 156.133 14.375 156.117 13.9062V7.60156C156.117 6.66406 155.742 5.82812 154.992 5.09375C154.242 4.35938 153.305 3.99219 152.18 3.99219V6.28906C152.883 6.28906 153.352 6.57812 153.586 7.15625C153.664 7.34375 153.703 7.53906 153.703 7.74219V8.23438C153.703 8.64062 152.844 9.10938 151.125 9.64062C149.5 10.1406 148.578 10.4531 148.359 10.5781C147.547 11.0625 147.133 11.8125 147.117 12.8281V13.9766ZM147.305 7.25L149.461 8.07031C149.461 7.17969 149.805 6.61719 150.492 6.38281C150.664 6.32031 150.836 6.28906 151.008 6.28906V3.99219C149.93 3.99219 149 4.38281 148.219 5.16406C147.609 5.78906 147.305 6.48438 147.305 7.25ZM158.227 15.5938C158.227 14.9688 158.5 14.5156 159.047 14.2344C159.266 14.125 159.492 14.0703 159.727 14.0703C160.352 14.0703 160.805 14.3516 161.086 14.9141C161.195 15.1328 161.25 15.3594 161.25 15.5938C161.25 16.2188 160.969 16.6719 160.406 16.9531C160.188 17.0625 159.961 17.1172 159.727 17.1172C159.133 17.1172 158.695 16.8516 158.414 16.3203C158.289 16.0859 158.227 15.8438 158.227 15.5938ZM162.914 13.4609C162.914 14.2734 163.234 15.0312 163.875 15.7344C164.656 16.5781 165.688 17 166.969 17V14.6094C166.156 14.6094 165.648 14.3359 165.445 13.7891C165.398 13.6797 165.375 13.5703 165.375 13.4609V7.57812C165.375 7.15625 165.602 6.82812 166.055 6.59375C166.32 6.45312 166.625 6.38281 166.969 6.38281V4.01562C165.438 4.01562 164.281 4.625 163.5 5.84375C163.125 6.42188 162.93 6.98438 162.914 7.53125V13.4609ZM168.023 6.40625C168.773 6.40625 169.227 6.75781 169.383 7.46094C169.414 7.58594 169.43 7.71094 169.43 7.83594V8.49219L171.727 7.625C171.727 6.46875 171.258 5.52344 170.32 4.78906C169.633 4.27344 168.867 4.01562 168.023 4.01562V6.40625ZM168.023 17.0234C169.133 17.0547 170.109 16.6406 170.953 15.7812C171.656 15.0625 172.008 14.2656 172.008 13.3906L169.711 12.5234V13.1562C169.633 14.125 169.07 14.6172 168.023 14.6328V17.0234ZM173.438 13.4609V7.53125C173.438 6.76562 173.781 6.02344 174.469 5.30469C175.281 4.44531 176.305 4.01562 177.539 4.01562V6.42969C176.727 6.42969 176.203 6.76562 175.969 7.4375C175.922 7.57812 175.898 7.71875 175.898 7.85938V13.1328C175.898 13.7266 176.172 14.1562 176.719 14.4219C176.969 14.5469 177.25 14.6094 177.562 14.6094V17.0234C176.047 17.0234 174.875 16.4141 174.047 15.1953C173.641 14.5859 173.438 14.0078 173.438 13.4609ZM178.594 17.0234V14.6094C179.344 14.6094 179.836 14.2891 180.07 13.6484C180.133 13.4766 180.164 13.3203 180.164 13.1797V7.85938C180.164 7.20312 179.859 6.76562 179.25 6.54688C179.047 6.46875 178.82 6.42969 178.57 6.42969V4.01562C180.039 4.01562 181.172 4.60938 181.969 5.79688C182.375 6.40625 182.578 6.98438 182.578 7.53125V13.4609C182.578 14.2266 182.25 14.9766 181.594 15.7109C180.797 16.5703 179.797 17.0078 178.594 17.0234ZM184.359 17V7.53125C184.359 6.71875 184.695 5.94531 185.367 5.21094C186.148 4.38281 187.141 3.96875 188.344 3.96875V6.45312C187.562 6.45312 187.094 6.79688 186.938 7.48438C186.906 7.60938 186.891 7.73438 186.891 7.85938V17H184.359ZM189.422 6.45312V3.96875C190.547 3.98438 191.469 4.34375 192.188 5.04688C192.922 4.32812 193.844 3.96875 194.953 3.96875V6.45312C194.141 6.45312 193.656 6.79688 193.5 7.48438C193.469 7.60938 193.453 7.73438 193.453 7.85938V17H190.922V7.85938C190.922 7.15625 190.602 6.71094 189.961 6.52344C189.789 6.47656 189.609 6.45312 189.422 6.45312ZM196.008 6.45312V3.96875C197.492 3.96875 198.633 4.57812 199.43 5.79688C199.82 6.40625 200.016 6.98438 200.016 7.53125V17H197.484V7.85938C197.484 7.04688 197.094 6.58594 196.312 6.47656C196.219 6.46094 196.117 6.45312 196.008 6.45312Z" fill="white"/>
</svg>
